<?xml version="1.0" encoding="utf-8"?>
<svg xmlns="http://www.w3.org/2000/svg" version="1.1" x="0px" y="0px" viewBox="0 0 100 100" style="enable-background:new 0 0 100 100;">
  <rect x="3.674" width="94.436" height="93.816" style="stroke: rgb(0, 0, 0);" y="3.269"/>
  <g transform="matrix(1.061572, 0, 0, 1.052632, -3.078557, -2.631609)" style="">
    <g>
      <path d="M53.1,41.1c-2.9-0.3-5.9,1-8.9,4.1c-3.4,3.4-5.9,7.2-7.3,9.7c-1.6,2.8-2,6-1.2,9.2l2.9,11.2l-0.5,8.5l8.1-1.1l0.4-7.5     c0-0.4,0-0.8-0.1-1.2l-2.2-8.5l9.5,0.2l1.5,8.1l6.4-0.6l1.4-1.6l-1.9-10.6c-0.3-1.9-2-3.3-3.9-3.3l-7.1-0.2l7.1-7.7l5.9,2.2     c0.4,0.1,0.8,0.2,1.2,0.2c0.2,0,0.5,0,0.7-0.1L70,51c0,0,0,0,0,0l1.7-7.2l-7.1,1.6C64.6,45.4,54.5,41.3,53.1,41.1z" style="fill: rgb(255, 255, 255);"/>
      <circle cx="59.6" cy="33.2" r="6.9" style="fill: rgb(255, 255, 255);"/>
      <path d="M92.4,2.5H7.6C5,2.5,2.9,4.6,2.9,7.2v85.6c0,2.6,2.1,4.7,4.7,4.7h84.8c2.6,0,4.7-2.1,4.7-4.7V7.2     C97.1,4.6,95,2.5,92.4,2.5z M84.7,31.6l-2.5,9.2l-4,1.4c-1.2,0.4-2,1.4-2.3,2.6l-1.7,7.2c-0.1,0.3-0.1,0.7-0.1,1l0.8,9.8     c0.1,0.9-0.2,1.8-0.8,2.5l-9.4,10.9c-0.6,0.7-1.4,1.1-2.3,1.2l-9.3,0.8c-0.6,0.1-1.1,0.5-1.2,1.1l-0.9,6     c-0.1,0.7-0.6,1.2-1.3,1.3l-13.3,1.8c-1,0.1-2,0.1-2.9-0.2l-7.7-2c-0.6-0.2-1-0.7-1-1.3l0.2-8.5c0-0.4-0.2-0.9-0.6-1.1l-5.8-3.9     c-0.3-0.2-0.5-0.5-0.6-0.8l-2-11c0-0.3,0-0.5,0.1-0.8l4.6-9.9c0.2-0.4,0.1-1-0.2-1.3l-4.3-5.5c-0.4-0.5-0.4-1.2,0.1-1.7     l15.4-16.9c0.1-0.2,0.2-0.3,0.3-0.5l1.9-3.6c0.4-0.8,1.2-1.2,2-1.3l16.2-0.4c0.3,0,0.7-0.1,1-0.2l11.6-5.7     c0.6-0.3,1.3-0.3,1.9-0.1l11.8,4.8c0.6,0.2,1.1,0.7,1.3,1.3l4.7,12.3C84.8,30.7,84.8,31.2,84.7,31.6z" style="fill: rgb(255, 255, 255);"/>
    </g>
  </g>
</svg>